<svg width="69" height="84" viewBox="0 0 69 84" fill="none" xmlns="http://www.w3.org/2000/svg">
<path d="M38.4831 44.3567C38.4831 46.6395 37.5944 48.8288 36.0125 50.443C34.4306 52.0571 32.2851 52.964 30.0479 52.964C27.8108 52.964 25.6653 52.0571 24.0834 50.443C22.5015 48.8288 21.6128 46.6395 21.6128 44.3567C21.6128 42.0739 22.5015 39.8846 24.0834 38.2704C25.6653 36.6562 27.8108 35.7494 30.0479 35.7494C32.2851 35.7494 34.4306 36.6562 36.0125 38.2704C37.5944 39.8846 38.4831 42.0739 38.4831 44.3567ZM34.2655 44.3567C34.2655 43.2153 33.8212 42.1206 33.0302 41.3135C32.2393 40.5065 31.1665 40.053 30.0479 40.053C28.9294 40.053 27.8566 40.5065 27.0657 41.3135C26.2747 42.1206 25.8304 43.2153 25.8304 44.3567C25.8304 45.4981 26.2747 46.5927 27.0657 47.3998C27.8566 48.2069 28.9294 48.6603 30.0479 48.6603C31.1665 48.6603 32.2393 48.2069 33.0302 47.3998C33.8212 46.5927 34.2655 45.4981 34.2655 44.3567Z" fill="white"/>
<path d="M4.74243 32.5217C4.74243 29.5521 7.10427 27.1421 10.0144 27.1421H50.0814C52.9915 27.1421 55.3533 29.5521 55.3533 32.5217V56.1917C55.3533 59.1612 52.9915 61.5713 50.0814 61.5713H10.0144C7.10427 61.5713 4.74243 59.1612 4.74243 56.1917V32.5217ZM10.0144 31.4457C9.73476 31.4457 9.46657 31.5591 9.26883 31.7609C9.0711 31.9626 8.96001 32.2363 8.96001 32.5217V35.7494H11.0688C11.6281 35.7494 12.1645 35.5227 12.5599 35.1191C12.9554 34.7156 13.1776 34.1683 13.1776 33.5976V31.4457H10.0144ZM8.96001 56.1917C8.96001 56.7856 9.43238 57.2676 10.0144 57.2676H13.1776V55.1158C13.1776 54.5451 12.9554 53.9978 12.5599 53.5942C12.1645 53.1907 11.6281 52.964 11.0688 52.964H8.96001V56.1917ZM17.3952 55.1158V57.2676H42.7006V55.1158C42.7006 53.4037 43.3671 51.7617 44.5536 50.5511C45.74 49.3405 47.3491 48.6603 49.027 48.6603H51.1358V40.053H49.027C47.3491 40.053 45.74 39.3729 44.5536 38.1623C43.3671 36.9516 42.7006 35.3097 42.7006 33.5976V31.4457H17.3952V33.5976C17.3952 35.3097 16.7286 36.9516 15.5422 38.1623C14.3558 39.3729 12.7467 40.053 11.0688 40.053H8.96001V48.6603H11.0688C12.7467 48.6603 14.3558 49.3405 15.5422 50.5511C16.7286 51.7617 17.3952 53.4037 17.3952 55.1158ZM46.9182 57.2676H50.0814C50.361 57.2676 50.6292 57.1543 50.8269 56.9525C51.0247 56.7507 51.1358 56.4771 51.1358 56.1917V52.964H49.027C48.4677 52.964 47.9313 53.1907 47.5358 53.5942C47.1404 53.9978 46.9182 54.5451 46.9182 55.1158V57.2676ZM51.1358 35.7494V32.5217C51.1358 32.2363 51.0247 31.9626 50.8269 31.7609C50.6292 31.5591 50.361 31.4457 50.0814 31.4457H46.9182V33.5976C46.9182 34.1683 47.1404 34.7156 47.5358 35.1191C47.9313 35.5227 48.4677 35.7494 49.027 35.7494H51.1358Z" fill="white"/>
<path d="M19.5038 70.1786C18.1678 70.1791 16.8659 69.748 15.7847 68.9471C14.7035 68.1461 13.8986 67.0165 13.4854 65.72C14.0716 65.8233 14.6705 65.875 15.2863 65.875H50.0813C52.5981 65.875 55.0118 64.8548 56.7914 63.0388C58.571 61.2229 59.5708 58.7599 59.5708 56.1918V36.1152C60.8048 36.5604 61.8731 37.3852 62.6284 38.4758C63.3838 39.5665 63.7891 40.8694 63.7884 42.2049V56.1918C63.7884 58.0285 63.4338 59.8473 62.745 61.5443C62.0562 63.2413 61.0465 64.7832 59.7737 66.082C58.5008 67.3808 56.9898 68.411 55.3268 69.1139C53.6637 69.8168 51.8813 70.1786 50.0813 70.1786H19.5038Z" fill="white"/>
<path d="M34.9727 1.07681C34.5822 0.686291 33.949 0.686291 33.5585 1.07681L27.1946 7.44078C26.804 7.8313 26.804 8.46447 27.1946 8.85499C27.5851 9.24551 28.2182 9.24551 28.6088 8.85499L34.2656 3.19814L39.9225 8.85499C40.313 9.24551 40.9462 9.24551 41.3367 8.85499C41.7272 8.46447 41.7272 7.8313 41.3367 7.44078L34.9727 1.07681ZM35.2656 21.587L35.2656 1.78392L33.2656 1.78392L33.2656 21.587L35.2656 21.587Z" fill="white"/>
</svg>
