<svg width="68" height="86" viewBox="0 0 68 86" fill="none" xmlns="http://www.w3.org/2000/svg">
<path d="M38.2175 46.4368C38.2175 48.7196 37.3288 50.9089 35.7469 52.523C34.165 54.1372 32.0195 55.0441 29.7823 55.0441C27.5452 55.0441 25.3997 54.1372 23.8178 52.523C22.2359 50.9089 21.3472 48.7196 21.3472 46.4368C21.3472 44.154 22.2359 41.9647 23.8178 40.3505C25.3997 38.7363 27.5452 37.8295 29.7823 37.8295C32.0195 37.8295 34.165 38.7363 35.7469 40.3505C37.3288 41.9647 38.2175 44.154 38.2175 46.4368ZM33.9999 46.4368C33.9999 45.2954 33.5555 44.2007 32.7646 43.3936C31.9736 42.5865 30.9009 42.1331 29.7823 42.1331C28.6638 42.1331 27.591 42.5865 26.8 43.3936C26.0091 44.2007 25.5647 45.2954 25.5647 46.4368C25.5647 47.5782 26.0091 48.6728 26.8 49.4799C27.591 50.287 28.6638 50.7404 29.7823 50.7404C30.9009 50.7404 31.9736 50.287 32.7646 49.4799C33.5555 48.6728 33.9999 47.5782 33.9999 46.4368Z" fill="white"/>
<path d="M4.47681 34.6017C4.47681 31.6322 6.83865 29.2222 9.74878 29.2222H49.8158C52.7259 29.2222 55.0877 31.6322 55.0877 34.6017V58.2718C55.0877 61.2413 52.7259 63.6514 49.8158 63.6514H9.74878C6.83865 63.6514 4.47681 61.2413 4.47681 58.2718V34.6017ZM9.74878 33.5258C9.46913 33.5258 9.20094 33.6392 9.00321 33.8409C8.80547 34.0427 8.69438 34.3164 8.69438 34.6017V37.8295H10.8032C11.3625 37.8295 11.8988 37.6028 12.2943 37.1992C12.6898 36.7957 12.912 36.2483 12.912 35.6776V33.5258H9.74878ZM8.69438 58.2718C8.69438 58.8657 9.16675 59.3477 9.74878 59.3477H12.912V57.1959C12.912 56.6252 12.6898 56.0779 12.2943 55.6743C11.8988 55.2708 11.3625 55.0441 10.8032 55.0441H8.69438V58.2718ZM17.1295 57.1959V59.3477H42.435V57.1959C42.435 55.4838 43.1015 53.8418 44.2879 52.6312C45.4744 51.4205 47.0835 50.7404 48.7614 50.7404H50.8701V42.1331H48.7614C47.0835 42.1331 45.4744 41.453 44.2879 40.2424C43.1015 39.0317 42.435 37.3897 42.435 35.6776V33.5258H17.1295V35.6776C17.1295 37.3897 16.463 39.0317 15.2766 40.2424C14.0902 41.453 12.481 42.1331 10.8032 42.1331H8.69438V50.7404H10.8032C12.481 50.7404 14.0902 51.4205 15.2766 52.6312C16.463 53.8418 17.1295 55.4838 17.1295 57.1959ZM46.6526 59.3477H49.8158C50.0954 59.3477 50.3636 59.2344 50.5613 59.0326C50.7591 58.8308 50.8701 58.5572 50.8701 58.2718V55.0441H48.7614C48.2021 55.0441 47.6657 55.2708 47.2702 55.6743C46.8747 56.0779 46.6526 56.6252 46.6526 57.1959V59.3477ZM50.8701 37.8295V34.6017C50.8701 34.3164 50.7591 34.0427 50.5613 33.8409C50.3636 33.6392 50.0954 33.5258 49.8158 33.5258H46.6526V35.6776C46.6526 36.2483 46.8747 36.7957 47.2702 37.1992C47.6657 37.6028 48.2021 37.8295 48.7614 37.8295H50.8701Z" fill="white"/>
<path d="M19.2382 72.2587C17.9022 72.2592 16.6003 71.8281 15.5191 71.0272C14.4379 70.2262 13.633 69.0966 13.2197 67.8001C13.806 67.9034 14.4049 67.955 15.0206 67.955H49.8156C52.3324 67.955 54.7461 66.9348 56.5258 65.1189C58.3054 63.3029 59.3052 60.84 59.3052 58.2718V38.1953C60.5392 38.6405 61.6074 39.4652 62.3628 40.5559C63.1182 41.6466 63.5235 42.9494 63.5228 44.285V58.2718C63.5228 60.1086 63.1682 61.9274 62.4794 63.6244C61.7905 65.3213 60.7809 66.8632 59.508 68.162C58.2352 69.4608 56.7242 70.4911 55.0611 71.194C53.3981 71.8969 51.6157 72.2587 49.8156 72.2587H19.2382Z" fill="white"/>
<path d="M32.2182 21.4859C32.6087 21.8765 33.2419 21.8765 33.6324 21.4859L39.9964 15.122C40.3869 14.7314 40.3869 14.0983 39.9964 13.7078C39.6058 13.3172 38.9727 13.3172 38.5821 13.7078L32.9253 19.3646L27.2684 13.7078C26.8779 13.3172 26.2448 13.3172 25.8542 13.7078C25.4637 14.0983 25.4637 14.7314 25.8542 15.122L32.2182 21.4859ZM31.9253 0.975708L31.9253 20.7788L33.9253 20.7788L33.9253 0.975708L31.9253 0.975708Z" fill="white"/>
</svg>
