<svg width="71" height="71" viewBox="0 0 71 71" fill="none" xmlns="http://www.w3.org/2000/svg">
<path d="M56.2083 50.0834V55.9167H20.7083V50.0834C20.7083 50.0834 20.7083 38.4167 38.4583 38.4167C56.2083 38.4167 56.2083 50.0834 56.2083 50.0834ZM47.3333 23.8334C47.3333 22.1028 46.8127 20.4111 45.8375 18.9721C44.8624 17.5332 43.4763 16.4117 41.8546 15.7494C40.2329 15.0872 38.4484 14.9139 36.7268 15.2515C35.0052 15.5891 33.4239 16.4225 32.1827 17.6462C30.9415 18.8699 30.0962 20.429 29.7538 22.1263C29.4113 23.8237 29.5871 25.583 30.2588 27.1819C30.9305 28.7807 32.0681 30.1473 33.5276 31.1087C34.9871 32.0702 36.7029 32.5834 38.4583 32.5834C40.812 32.5834 43.0694 31.6615 44.7338 30.0206C46.3982 28.3796 47.3333 26.154 47.3333 23.8334ZM56.7999 38.5917C58.417 40.0626 59.7208 41.8363 60.635 43.8094C61.5493 45.7824 62.0558 47.9153 62.1249 50.0834V55.9167H70.9999V50.0834C70.9999 50.0834 70.9999 40.0209 56.7999 38.5917ZM53.2499 15.0834C52.3561 15.0839 51.4678 15.2217 50.617 15.4917C52.3478 17.9387 53.2758 20.8502 53.2758 23.8334C53.2758 26.8166 52.3478 29.728 50.617 32.175C51.4678 32.4451 52.3561 32.5828 53.2499 32.5834C55.6037 32.5834 57.8611 31.6615 59.5255 30.0206C61.1899 28.3796 62.1249 26.154 62.1249 23.8334C62.1249 21.5127 61.1899 19.2871 59.5255 17.6462C57.8611 16.0052 55.6037 15.0834 53.2499 15.0834ZM21.7141 26.5167L25.1458 30.6292L11.0937 44.4834L2.95825 35.7334L6.38992 32.35L11.0937 36.9584L21.7141 26.5167Z" fill="white"/>
</svg>
