<svg width="70" height="72" viewBox="0 0 70 72" fill="none" xmlns="http://www.w3.org/2000/svg">
<path d="M70.0002 50.7916V56.7083H61.2502V50.7916C61.2502 46.2062 59.2085 42.0941 55.9418 39.1358C70.0002 40.5854 70.0002 50.7916 70.0002 50.7916ZM52.5002 15.2916C57.3418 15.2916 61.2502 19.2558 61.2502 24.1666C61.2518 25.5605 60.9294 26.9351 60.3089 28.1789C59.6885 29.4226 58.7876 30.5004 57.6794 31.3247C56.5712 32.149 55.2869 32.6966 53.9309 32.9229C52.5749 33.1493 51.1854 33.048 49.8752 32.6275C51.5377 30.2312 52.5002 27.332 52.5002 24.1666C52.5002 21.0308 51.5377 18.102 49.8752 15.7058C50.6918 15.4395 51.596 15.2916 52.5002 15.2916ZM37.9168 15.2916C42.7585 15.2916 46.6668 19.2558 46.6668 24.1666C46.6668 29.0775 42.7585 33.0416 37.9168 33.0416C33.0752 33.0416 29.1668 29.0775 29.1668 24.1666C29.1668 19.2558 33.0752 15.2916 37.9168 15.2916ZM55.4168 50.7916V56.7083H20.4168V50.7916C20.4168 44.2537 28.2627 38.9583 37.9168 38.9583C47.571 38.9583 55.4168 44.2537 55.4168 50.7916ZM1.35352 39.3133L7.55435 33.0416L1.35352 26.77L5.48352 22.5691L11.6668 28.8704L17.8502 22.5691L21.9918 26.77L15.7793 33.0416L21.9918 39.3133L17.8502 43.5141L11.6668 37.2129L5.48352 43.5141L1.35352 39.3133Z" fill="white"/>
</svg>
