<svg width="99" height="96" viewBox="0 0 99 96" fill="none" xmlns="http://www.w3.org/2000/svg">
<path d="M44.1807 31.2422L6.75903 36.2572L33.841 60.5528L27.4385 94.8781L60.9229 78.6814V0L44.1807 31.2422Z" fill="black"/>
<path d="M72.9105 32.4787C71.8461 32.4787 70.8609 32.303 69.955 31.9516C69.049 31.6002 68.2677 31.1061 67.6109 30.4692C66.9541 29.8323 66.4332 29.0637 66.0482 28.1632C65.6858 27.2848 65.5046 26.3185 65.5046 25.2643C65.5046 24.7153 65.5726 24.1882 65.7085 23.6831C65.8217 23.1999 65.9802 22.7497 66.1841 22.3324C66.4106 21.9151 66.6484 21.5528 66.8975 21.2453C67.1693 20.9379 67.441 20.7073 67.7128 20.5535C67.5996 20.5535 67.475 20.5535 67.3391 20.5535C67.2259 20.5755 67.1126 20.5865 66.9994 20.5865H65.8444V17.7534H92.2409V20.5865H77.9723C78.2441 20.7622 78.5159 20.9928 78.7876 21.2783C79.0821 21.5857 79.3425 21.9371 79.569 22.3324C79.8181 22.7497 80.022 23.2109 80.1805 23.716C80.339 24.2211 80.4183 24.7811 80.4183 25.3961C80.4183 26.4502 80.2371 27.4056 79.8748 28.2621C79.535 29.1405 79.0368 29.8872 78.38 30.5021C77.7458 31.139 76.9645 31.6222 76.0359 31.9516C75.1074 32.303 74.0656 32.4787 72.9105 32.4787ZM72.9785 29.415C73.6352 29.415 74.2354 29.3162 74.779 29.1186C75.3452 28.9209 75.8321 28.6354 76.2398 28.2621C76.6474 27.8887 76.9645 27.4385 77.191 26.9114C77.4401 26.3843 77.5647 25.7914 77.5647 25.1325C77.5647 24.4737 77.4401 23.8588 77.191 23.2877C76.9645 22.7387 76.6474 22.2665 76.2398 21.8712C75.8321 21.4759 75.3452 21.1575 74.779 20.9159C74.2354 20.6963 73.6352 20.5865 72.9785 20.5865C72.3217 20.5865 71.7102 20.6963 71.144 20.9159C70.5778 21.1575 70.0908 21.4759 69.6832 21.8712C69.2755 22.2665 68.9471 22.7387 68.698 23.2877C68.4715 23.8588 68.3583 24.4737 68.3583 25.1325C68.3583 25.7914 68.4715 26.3843 68.698 26.9114C68.9471 27.4385 69.2755 27.8887 69.6832 28.2621C70.1135 28.6354 70.6004 28.9209 71.144 29.1186C71.7102 29.3162 72.3217 29.415 72.9785 29.415ZM72.8086 33.6C73.8504 33.6 74.8243 33.7867 75.7302 34.16C76.6587 34.5553 77.4627 35.0824 78.1422 35.7413C78.8443 36.4001 79.3991 37.1578 79.8068 38.0143C80.2145 38.8928 80.4183 39.8261 80.4183 40.8144C80.4183 41.4733 80.3277 42.0772 80.1465 42.6262C79.988 43.1753 79.7842 43.6475 79.535 44.0428C79.2859 44.4381 79.0255 44.7565 78.7537 44.9981C78.4819 45.2397 78.2441 45.4044 78.0403 45.4922L80.0446 45.624V48.3253H65.8444V45.4922H67.6449C67.4637 45.3824 67.2485 45.2067 66.9994 44.9652C66.7503 44.7236 66.5125 44.4051 66.286 44.0098C66.0822 43.6365 65.901 43.1863 65.7424 42.6592C65.5839 42.1321 65.5046 41.5282 65.5046 40.8473C65.5046 39.7932 65.6971 38.8159 66.0822 37.9155C66.4898 37.037 67.022 36.2793 67.6788 35.6424C68.3583 35.0056 69.1396 34.5004 70.0229 34.1271C70.9062 33.7757 71.8347 33.6 72.8086 33.6ZM72.9785 36.4331C72.3217 36.4331 71.7102 36.5429 71.144 36.7625C70.5778 37.0041 70.0908 37.3225 69.6832 37.7178C69.2755 38.1131 68.9471 38.5853 68.698 39.1343C68.4715 39.6834 68.3583 40.2873 68.3583 40.9462C68.3583 41.605 68.4715 42.209 68.698 42.758C68.9471 43.329 69.2755 43.8122 69.6832 44.2075C70.1135 44.6248 70.6004 44.9432 71.144 45.1628C71.7102 45.3824 72.3217 45.4922 72.9785 45.4922C73.6352 45.4922 74.2354 45.3824 74.779 45.1628C75.3452 44.9432 75.8321 44.6248 76.2398 44.2075C76.6474 43.8122 76.9645 43.329 77.191 42.758C77.4401 42.209 77.5647 41.605 77.5647 40.9462C77.5647 40.2873 77.4401 39.6834 77.191 39.1343C76.9645 38.5853 76.6474 38.1131 76.2398 37.7178C75.8321 37.3225 75.3452 37.0041 74.779 36.7625C74.2354 36.5429 73.6352 36.4331 72.9785 36.4331ZM80.0446 51.2929V53.7636C79.3425 53.8075 78.6971 53.8405 78.1082 53.8624C77.542 53.9064 76.9758 53.9503 76.4096 53.9942C77.6326 54.4993 78.6065 55.2131 79.3312 56.1355C80.0559 57.0798 80.4183 58.2328 80.4183 59.5944C80.4183 60.978 80.022 62.0871 79.2293 62.9216C78.4366 63.7562 77.4174 64.1954 76.1718 64.2393H65.8444V61.4063H74.8469C75.5716 61.3623 76.1831 61.1208 76.6814 60.6815C77.2023 60.2423 77.4854 59.5505 77.5307 58.6062C77.5307 57.9473 77.4061 57.3434 77.157 56.7943C76.9305 56.2453 76.6134 55.7731 76.2058 55.3778C75.7981 54.9825 75.3112 54.664 74.745 54.4225C74.1788 54.2029 73.556 54.093 72.8765 54.093H65.8444V51.2929H80.0446ZM80.4183 76.8493L78.6857 78.5294C77.8931 77.6948 77.123 76.8932 76.3756 76.1246C75.6283 75.3779 74.8469 74.5873 74.0316 73.7527C72.6727 74.741 71.3025 75.7073 69.921 76.6517C68.5621 77.596 67.2032 78.5513 65.8444 79.5177V76.2893C66.9088 75.5426 67.9506 74.7849 68.9698 74.0163C70.0116 73.2696 71.0647 72.5229 72.1292 71.7762L70.3286 69.8655H65.8444V67.0654H92.2409V69.8655H73.7258C74.8809 71.0954 75.9906 72.2703 77.0551 73.3904C78.1422 74.5104 79.2633 75.6634 80.4183 76.8493Z" fill="black"/>
</svg>
